{
	"asset":{
		"generator":"Khronos glTF Blender I/O v4.4.56",
		"version":"2.0"
	},
	"scene":0,
	"scenes":[
		{
			"name":"Scene",
			"nodes":[
				0
			]
		}
	],
	"nodes":[
		{
			"mesh":0,
			"name":"jeep",
			"translation":[
				-0.00013586878776550293,
				0.189297154545784,
				0.19469361007213593
			]
		}
	],
	"materials":[
		{
			"doubleSided":true,
			"name":"Material",
			"pbrMetallicRoughness":{
				"baseColorTexture":{
					"index":0
				},
				"metallicFactor":0,
				"roughnessFactor":0.5
			}
		}
	],
	"meshes":[
		{
			"name":"Cube.001",
			"primitives":[
				{
					"attributes":{
						"POSITION":0,
						"NORMAL":1,
						"TEXCOORD_0":2
					},
					"indices":3,
					"material":0
				}
			]
		}
	],
	"textures":[
		{
			"sampler":0,
			"source":0
		}
	],
	"images":[
		{
			"mimeType":"image/png",
			"name":"jeep",
			"uri":"textures/jeep.png"
		}
	],
	"accessors":[
		{
			"bufferView":0,
			"componentType":5126,
			"count":1035,
			"max":[
				0.13119491934776306,
				0.05866329371929169,
				0.09858934581279755
			],
			"min":[
				-0.13092318177223206,
				-0.18954937160015106,
				-0.4190223813056946
			],
			"type":"VEC3"
		},
		{
			"bufferView":1,
			"componentType":5126,
			"count":1035,
			"type":"VEC3"
		},
		{
			"bufferView":2,
			"componentType":5126,
			"count":1035,
			"type":"VEC2"
		},
		{
			"bufferView":3,
			"componentType":5123,
			"count":2244,
			"type":"SCALAR"
		}
	],
	"bufferViews":[
		{
			"buffer":0,
			"byteLength":12420,
			"byteOffset":0,
			"target":34962
		},
		{
			"buffer":0,
			"byteLength":12420,
			"byteOffset":12420,
			"target":34962
		},
		{
			"buffer":0,
			"byteLength":8280,
			"byteOffset":24840,
			"target":34962
		},
		{
			"buffer":0,
			"byteLength":4488,
			"byteOffset":33120,
			"target":34963
		}
	],
	"samplers":[
		{
			"magFilter":9729,
			"minFilter":9987
		}
	],
	"buffers":[
		{
			"byteLength":37608,
			"uri":"jeep.bin"
		}
	]
}
