{
	"asset":{
		"generator":"Khronos glTF Blender I/O v4.4.56",
		"version":"2.0"
	},
	"scene":0,
	"scenes":[
		{
			"name":"Scene",
			"nodes":[
				0
			]
		}
	],
	"nodes":[
		{
			"mesh":0,
			"name":"jeep"
		}
	],
	"meshes":[
		{
			"name":"Cube.001",
			"primitives":[
				{
					"attributes":{
						"POSITION":0,
						"NORMAL":1,
						"TEXCOORD_0":2
					},
					"indices":3
				}
			]
		}
	],
	"accessors":[
		{
			"bufferView":0,
			"componentType":5126,
			"count":973,
			"max":[
				0.13105905055999756,
				0.24796044826507568,
				0.29328295588493347
			],
			"min":[
				-0.13105905055999756,
				-0.0002522205759305507,
				-0.22432875633239746
			],
			"type":"VEC3"
		},
		{
			"bufferView":1,
			"componentType":5126,
			"count":973,
			"type":"VEC3"
		},
		{
			"bufferView":2,
			"componentType":5126,
			"count":973,
			"type":"VEC2"
		},
		{
			"bufferView":3,
			"componentType":5123,
			"count":2244,
			"type":"SCALAR"
		}
	],
	"bufferViews":[
		{
			"buffer":0,
			"byteLength":11676,
			"byteOffset":0,
			"target":34962
		},
		{
			"buffer":0,
			"byteLength":11676,
			"byteOffset":11676,
			"target":34962
		},
		{
			"buffer":0,
			"byteLength":7784,
			"byteOffset":23352,
			"target":34962
		},
		{
			"buffer":0,
			"byteLength":4488,
			"byteOffset":31136,
			"target":34963
		}
	],
	"buffers":[
		{
			"byteLength":35624,
			"uri":"jeep.bin"
		}
	]
}
