{
	"asset":{
		"generator":"Khronos glTF Blender I/O v4.4.56",
		"version":"2.0"
	},
	"scene":0,
	"scenes":[
		{
			"name":"Scene",
			"nodes":[
				0
			]
		}
	],
	"nodes":[
		{
			"mesh":0,
			"name":"Icosphere.001"
		}
	],
	"materials":[
		{
			"doubleSided":true,
			"name":"Material.001",
			"pbrMetallicRoughness":{
				"baseColorTexture":{
					"index":0
				},
				"metallicFactor":0,
				"roughnessFactor":0.5
			}
		}
	],
	"meshes":[
		{
			"name":"Icosphere.001",
			"primitives":[
				{
					"attributes":{
						"POSITION":0,
						"NORMAL":1,
						"TEXCOORD_0":2
					},
					"indices":3,
					"material":0
				}
			]
		}
	],
	"textures":[
		{
			"sampler":0,
			"source":0
		}
	],
	"images":[
		{
			"mimeType":"image/png",
			"name":"tree",
			"uri":"tree.png"
		}
	],
	"accessors":[
		{
			"bufferView":0,
			"componentType":5126,
			"count":847,
			"max":[
				0.26441729068756104,
				1.2965340614318848,
				0.35707226395606995
			],
			"min":[
				-0.3914990723133087,
				-0.0010628700256347656,
				-0.41691017150878906
			],
			"type":"VEC3"
		},
		{
			"bufferView":1,
			"componentType":5126,
			"count":847,
			"type":"VEC3"
		},
		{
			"bufferView":2,
			"componentType":5126,
			"count":847,
			"type":"VEC2"
		},
		{
			"bufferView":3,
			"componentType":5123,
			"count":2706,
			"type":"SCALAR"
		}
	],
	"bufferViews":[
		{
			"buffer":0,
			"byteLength":10164,
			"byteOffset":0,
			"target":34962
		},
		{
			"buffer":0,
			"byteLength":10164,
			"byteOffset":10164,
			"target":34962
		},
		{
			"buffer":0,
			"byteLength":6776,
			"byteOffset":20328,
			"target":34962
		},
		{
			"buffer":0,
			"byteLength":5412,
			"byteOffset":27104,
			"target":34963
		}
	],
	"samplers":[
		{
			"magFilter":9729,
			"minFilter":9987
		}
	],
	"buffers":[
		{
			"byteLength":32516,
			"uri":"tree.bin"
		}
	]
}
