{
	"asset":{
		"generator":"Khronos glTF Blender I/O v4.4.56",
		"version":"2.0"
	},
	"scene":0,
	"scenes":[
		{
			"name":"Scene",
			"nodes":[
				0
			]
		}
	],
	"nodes":[
		{
			"mesh":0,
			"name":"cow"
		}
	],
	"materials":[
		{
			"doubleSided":true,
			"name":"cow",
			"pbrMetallicRoughness":{
				"baseColorTexture":{
					"index":0
				},
				"metallicFactor":0,
				"roughnessFactor":0.5
			}
		}
	],
	"meshes":[
		{
			"name":"Cube.001",
			"primitives":[
				{
					"attributes":{
						"POSITION":0,
						"NORMAL":1,
						"TEXCOORD_0":2
					},
					"indices":3,
					"material":0
				}
			]
		}
	],
	"textures":[
		{
			"sampler":0,
			"source":0
		}
	],
	"images":[
		{
			"mimeType":"image/png",
			"name":"cow",
			"uri":"textures/cow.png"
		}
	],
	"accessors":[
		{
			"bufferView":0,
			"componentType":5126,
			"count":830,
			"max":[
				0.13211242854595184,
				0.28275585174560547,
				0.3210737407207489
			],
			"min":[
				-0.13211242854595184,
				-0.0011431872844696045,
				-0.2922685742378235
			],
			"type":"VEC3"
		},
		{
			"bufferView":1,
			"componentType":5126,
			"count":830,
			"type":"VEC3"
		},
		{
			"bufferView":2,
			"componentType":5126,
			"count":830,
			"type":"VEC2"
		},
		{
			"bufferView":3,
			"componentType":5123,
			"count":2172,
			"type":"SCALAR"
		}
	],
	"bufferViews":[
		{
			"buffer":0,
			"byteLength":9960,
			"byteOffset":0,
			"target":34962
		},
		{
			"buffer":0,
			"byteLength":9960,
			"byteOffset":9960,
			"target":34962
		},
		{
			"buffer":0,
			"byteLength":6640,
			"byteOffset":19920,
			"target":34962
		},
		{
			"buffer":0,
			"byteLength":4344,
			"byteOffset":26560,
			"target":34963
		}
	],
	"samplers":[
		{
			"magFilter":9729,
			"minFilter":9987
		}
	],
	"buffers":[
		{
			"byteLength":30904,
			"uri":"cow.bin"
		}
	]
}
