{
	"asset":{
		"generator":"Khronos glTF Blender I/O v4.4.56",
		"version":"2.0"
	},
	"scene":0,
	"scenes":[
		{
			"name":"Scene",
			"nodes":[
				0,
				1
			]
		}
	],
	"nodes":[
		{
			"mesh":0,
			"name":"Icosphere",
			"scale":[
				0.2306867241859436,
				0.2306867241859436,
				0.2306867241859436
			]
		},
		{
			"mesh":1,
			"name":"Cube",
			"scale":[
				0.026720870286226273,
				0.026720870286226273,
				0.026720870286226273
			]
		}
	],
	"materials":[
		{
			"doubleSided":true,
			"name":"Material.001",
			"pbrMetallicRoughness":{
				"baseColorTexture":{
					"index":0
				},
				"metallicFactor":0,
				"roughnessFactor":0.5
			}
		},
		{
			"doubleSided":true,
			"name":"Material.002",
			"pbrMetallicRoughness":{
				"baseColorTexture":{
					"index":1
				},
				"metallicFactor":0,
				"roughnessFactor":0.5
			}
		}
	],
	"meshes":[
		{
			"name":"Icosphere",
			"primitives":[
				{
					"attributes":{
						"POSITION":0,
						"NORMAL":1,
						"TEXCOORD_0":2
					},
					"indices":3,
					"material":0
				}
			]
		},
		{
			"name":"Cube.003",
			"primitives":[
				{
					"attributes":{
						"POSITION":4,
						"NORMAL":5,
						"TEXCOORD_0":6
					},
					"indices":7,
					"material":1
				}
			]
		}
	],
	"textures":[
		{
			"sampler":0,
			"source":0
		},
		{
			"sampler":0,
			"source":0
		}
	],
	"images":[
		{
			"mimeType":"image/png",
			"name":"rocks",
			"uri":"textures/rocks.png"
		}
	],
	"accessors":[
		{
			"bufferView":0,
			"componentType":5126,
			"count":415,
			"max":[
				0.39224398136138916,
				0.18968640267848969,
				0.29024526476860046
			],
			"min":[
				-0.3739246726036072,
				-0.04112177714705467,
				-0.26902708411216736
			],
			"type":"VEC3"
		},
		{
			"bufferView":1,
			"componentType":5126,
			"count":415,
			"type":"VEC3"
		},
		{
			"bufferView":2,
			"componentType":5126,
			"count":415,
			"type":"VEC2"
		},
		{
			"bufferView":3,
			"componentType":5123,
			"count":465,
			"type":"SCALAR"
		},
		{
			"bufferView":4,
			"componentType":5126,
			"count":434,
			"max":[
				0.8395062685012817,
				1.0292023420333862,
				0.8395062685012817
			],
			"min":[
				-0.8727012276649475,
				-0.02742166817188263,
				-1.3216886520385742
			],
			"type":"VEC3"
		},
		{
			"bufferView":5,
			"componentType":5126,
			"count":434,
			"type":"VEC3"
		},
		{
			"bufferView":6,
			"componentType":5126,
			"count":434,
			"type":"VEC2"
		},
		{
			"bufferView":7,
			"componentType":5123,
			"count":645,
			"type":"SCALAR"
		}
	],
	"bufferViews":[
		{
			"buffer":0,
			"byteLength":4980,
			"byteOffset":0,
			"target":34962
		},
		{
			"buffer":0,
			"byteLength":4980,
			"byteOffset":4980,
			"target":34962
		},
		{
			"buffer":0,
			"byteLength":3320,
			"byteOffset":9960,
			"target":34962
		},
		{
			"buffer":0,
			"byteLength":930,
			"byteOffset":13280,
			"target":34963
		},
		{
			"buffer":0,
			"byteLength":5208,
			"byteOffset":14212,
			"target":34962
		},
		{
			"buffer":0,
			"byteLength":5208,
			"byteOffset":19420,
			"target":34962
		},
		{
			"buffer":0,
			"byteLength":3472,
			"byteOffset":24628,
			"target":34962
		},
		{
			"buffer":0,
			"byteLength":1290,
			"byteOffset":28100,
			"target":34963
		}
	],
	"samplers":[
		{
			"magFilter":9729,
			"minFilter":9987
		}
	],
	"buffers":[
		{
			"byteLength":29392,
			"uri":"rocks2.bin"
		}
	]
}
