{
	"asset":{
		"generator":"Khronos glTF Blender I/O v4.4.56",
		"version":"2.0"
	},
	"scene":0,
	"scenes":[
		{
			"name":"Scene",
			"nodes":[
				0
			]
		}
	],
	"nodes":[
		{
			"mesh":0,
			"name":"ufo"
		}
	],
	"materials":[
		{
			"doubleSided":true,
			"name":"ufo",
			"pbrMetallicRoughness":{
				"baseColorTexture":{
					"index":0
				},
				"metallicFactor":0,
				"roughnessFactor":0.5
			}
		}
	],
	"meshes":[
		{
			"name":"Cube.001",
			"primitives":[
				{
					"attributes":{
						"POSITION":0,
						"NORMAL":1,
						"TEXCOORD_0":2
					},
					"indices":3,
					"material":0
				}
			]
		}
	],
	"textures":[
		{
			"sampler":0,
			"source":0
		}
	],
	"images":[
		{
			"mimeType":"image/png",
			"name":"truther",
			"uri":"textures/truther.png"
		}
	],
	"accessors":[
		{
			"bufferView":0,
			"componentType":5126,
			"count":1928,
			"max":[
				1.8255336284637451,
				0.8395062685012817,
				1.8255336284637451
			],
			"min":[
				-1.8255336284637451,
				-1.0107958316802979,
				-1.8255336284637451
			],
			"type":"VEC3"
		},
		{
			"bufferView":1,
			"componentType":5126,
			"count":1928,
			"type":"VEC3"
		},
		{
			"bufferView":2,
			"componentType":5126,
			"count":1928,
			"type":"VEC2"
		},
		{
			"bufferView":3,
			"componentType":5123,
			"count":3672,
			"type":"SCALAR"
		}
	],
	"bufferViews":[
		{
			"buffer":0,
			"byteLength":23136,
			"byteOffset":0,
			"target":34962
		},
		{
			"buffer":0,
			"byteLength":23136,
			"byteOffset":23136,
			"target":34962
		},
		{
			"buffer":0,
			"byteLength":15424,
			"byteOffset":46272,
			"target":34962
		},
		{
			"buffer":0,
			"byteLength":7344,
			"byteOffset":61696,
			"target":34963
		}
	],
	"samplers":[
		{
			"magFilter":9729,
			"minFilter":9987
		}
	],
	"buffers":[
		{
			"byteLength":69040,
			"uri":"ufo.bin"
		}
	]
}
