{
	"asset":{
		"generator":"Khronos glTF Blender I/O v4.4.56",
		"version":"2.0"
	},
	"scene":0,
	"scenes":[
		{
			"name":"Scene",
			"nodes":[
				0
			]
		}
	],
	"nodes":[
		{
			"mesh":0,
			"name":"Cube"
		}
	],
	"materials":[
		{
			"doubleSided":true,
			"name":"Material.002",
			"pbrMetallicRoughness":{
				"baseColorTexture":{
					"index":0
				},
				"metallicFactor":0,
				"roughnessFactor":0.5
			}
		}
	],
	"meshes":[
		{
			"name":"Cube.002",
			"primitives":[
				{
					"attributes":{
						"POSITION":0,
						"NORMAL":1,
						"TEXCOORD_0":2
					},
					"indices":3,
					"material":0
				}
			]
		}
	],
	"textures":[
		{
			"sampler":0,
			"source":0
		}
	],
	"images":[
		{
			"mimeType":"image/png",
			"name":"tree",
			"uri":"textures/tree.png"
		}
	],
	"accessors":[
		{
			"bufferView":0,
			"componentType":5126,
			"count":504,
			"max":[
				0.6397325396537781,
				1.9522943496704102,
				0.9701706171035767
			],
			"min":[
				-0.5765635967254639,
				0.001953810453414917,
				-0.75577712059021
			],
			"type":"VEC3"
		},
		{
			"bufferView":1,
			"componentType":5126,
			"count":504,
			"type":"VEC3"
		},
		{
			"bufferView":2,
			"componentType":5126,
			"count":504,
			"type":"VEC2"
		},
		{
			"bufferView":3,
			"componentType":5123,
			"count":1524,
			"type":"SCALAR"
		}
	],
	"bufferViews":[
		{
			"buffer":0,
			"byteLength":6048,
			"byteOffset":0,
			"target":34962
		},
		{
			"buffer":0,
			"byteLength":6048,
			"byteOffset":6048,
			"target":34962
		},
		{
			"buffer":0,
			"byteLength":4032,
			"byteOffset":12096,
			"target":34962
		},
		{
			"buffer":0,
			"byteLength":3048,
			"byteOffset":16128,
			"target":34963
		}
	],
	"samplers":[
		{
			"magFilter":9729,
			"minFilter":9987
		}
	],
	"buffers":[
		{
			"byteLength":19176,
			"uri":"tree.bin"
		}
	]
}
