{
	"asset":{
		"generator":"Khronos glTF Blender I/O v4.4.56",
		"version":"2.0"
	},
	"scene":0,
	"scenes":[
		{
			"name":"Scene",
			"nodes":[
				0
			]
		}
	],
	"nodes":[
		{
			"mesh":0,
			"name":"Icosphere",
			"scale":[
				0.2306867241859436,
				0.2306867241859436,
				0.2306867241859436
			]
		}
	],
	"materials":[
		{
			"doubleSided":true,
			"name":"Material.001",
			"pbrMetallicRoughness":{
				"baseColorTexture":{
					"index":0
				},
				"metallicFactor":0,
				"roughnessFactor":0.5
			}
		}
	],
	"meshes":[
		{
			"name":"Icosphere",
			"primitives":[
				{
					"attributes":{
						"POSITION":0,
						"NORMAL":1,
						"TEXCOORD_0":2
					},
					"indices":3,
					"material":0
				}
			]
		}
	],
	"textures":[
		{
			"sampler":0,
			"source":0
		}
	],
	"images":[
		{
			"mimeType":"image/png",
			"name":"rocks",
			"uri":"textures/rocks.png"
		}
	],
	"accessors":[
		{
			"bufferView":0,
			"componentType":5126,
			"count":415,
			"max":[
				0.39224398136138916,
				0.18968640267848969,
				0.29024526476860046
			],
			"min":[
				-0.3739246726036072,
				-0.04112177714705467,
				-0.26902708411216736
			],
			"type":"VEC3"
		},
		{
			"bufferView":1,
			"componentType":5126,
			"count":415,
			"type":"VEC3"
		},
		{
			"bufferView":2,
			"componentType":5126,
			"count":415,
			"type":"VEC2"
		},
		{
			"bufferView":3,
			"componentType":5123,
			"count":465,
			"type":"SCALAR"
		}
	],
	"bufferViews":[
		{
			"buffer":0,
			"byteLength":4980,
			"byteOffset":0,
			"target":34962
		},
		{
			"buffer":0,
			"byteLength":4980,
			"byteOffset":4980,
			"target":34962
		},
		{
			"buffer":0,
			"byteLength":3320,
			"byteOffset":9960,
			"target":34962
		},
		{
			"buffer":0,
			"byteLength":930,
			"byteOffset":13280,
			"target":34963
		}
	],
	"samplers":[
		{
			"magFilter":9729,
			"minFilter":9987
		}
	],
	"buffers":[
		{
			"byteLength":14212,
			"uri":"rocks.bin"
		}
	]
}
