{
	"asset":{
		"generator":"Khronos glTF Blender I/O v4.4.56",
		"version":"2.0"
	},
	"scene":0,
	"scenes":[
		{
			"name":"Scene",
			"nodes":[
				0
			]
		}
	],
	"nodes":[
		{
			"mesh":0,
			"name":"Cube"
		}
	],
	"materials":[
		{
			"doubleSided":true,
			"name":"truther",
			"pbrMetallicRoughness":{
				"baseColorTexture":{
					"index":0
				},
				"metallicFactor":0,
				"roughnessFactor":0.5
			}
		}
	],
	"meshes":[
		{
			"name":"Cube.001",
			"primitives":[
				{
					"attributes":{
						"POSITION":0,
						"NORMAL":1,
						"TEXCOORD_0":2
					},
					"indices":3,
					"material":0
				}
			]
		}
	],
	"textures":[
		{
			"sampler":0,
			"source":0
		}
	],
	"images":[
		{
			"mimeType":"image/png",
			"name":"truther",
			"uri":"textures/truther.png"
		}
	],
	"accessors":[
		{
			"bufferView":0,
			"componentType":5126,
			"count":1434,
			"max":[
				0.05499943718314171,
				0.36756399273872375,
				0.11667782068252563
			],
			"min":[
				-0.04125788435339928,
				-0.00319865345954895,
				-0.11667782068252563
			],
			"type":"VEC3"
		},
		{
			"bufferView":1,
			"componentType":5126,
			"count":1434,
			"type":"VEC3"
		},
		{
			"bufferView":2,
			"componentType":5126,
			"count":1434,
			"type":"VEC2"
		},
		{
			"bufferView":3,
			"componentType":5123,
			"count":2142,
			"type":"SCALAR"
		}
	],
	"bufferViews":[
		{
			"buffer":0,
			"byteLength":17208,
			"byteOffset":0,
			"target":34962
		},
		{
			"buffer":0,
			"byteLength":17208,
			"byteOffset":17208,
			"target":34962
		},
		{
			"buffer":0,
			"byteLength":11472,
			"byteOffset":34416,
			"target":34962
		},
		{
			"buffer":0,
			"byteLength":4284,
			"byteOffset":45888,
			"target":34963
		}
	],
	"samplers":[
		{
			"magFilter":9729,
			"minFilter":9987
		}
	],
	"buffers":[
		{
			"byteLength":50172,
			"uri":"truther.bin"
		}
	]
}
