{
	"asset":{
		"generator":"Khronos glTF Blender I/O v4.4.56",
		"version":"2.0"
	},
	"scene":0,
	"scenes":[
		{
			"name":"Scene",
			"nodes":[
				0
			]
		}
	],
	"nodes":[
		{
			"mesh":0,
			"name":"B\u00e9zierCurve"
		}
	],
	"materials":[
		{
			"doubleSided":true,
			"name":"Material.001",
			"pbrMetallicRoughness":{
				"baseColorTexture":{
					"index":0
				},
				"metallicFactor":0,
				"roughnessFactor":0.5
			}
		}
	],
	"meshes":[
		{
			"name":"B\u00e9zierCurve",
			"primitives":[
				{
					"attributes":{
						"POSITION":0,
						"NORMAL":1,
						"TEXCOORD_0":2
					},
					"indices":3,
					"material":0
				}
			]
		}
	],
	"textures":[
		{
			"sampler":0,
			"source":0
		}
	],
	"images":[
		{
			"mimeType":"image/png",
			"name":"wheat",
			"uri":"textures/wheat.png"
		}
	],
	"accessors":[
		{
			"bufferView":0,
			"componentType":5126,
			"count":1299,
			"max":[
				0.4452795684337616,
				2.065262794494629,
				0.487281858921051
			],
			"min":[
				-0.44472169876098633,
				0.0003010854125022888,
				-0.5343268513679504
			],
			"type":"VEC3"
		},
		{
			"bufferView":1,
			"componentType":5126,
			"count":1299,
			"type":"VEC3"
		},
		{
			"bufferView":2,
			"componentType":5126,
			"count":1299,
			"type":"VEC2"
		},
		{
			"bufferView":3,
			"componentType":5123,
			"count":4041,
			"type":"SCALAR"
		}
	],
	"bufferViews":[
		{
			"buffer":0,
			"byteLength":15588,
			"byteOffset":0,
			"target":34962
		},
		{
			"buffer":0,
			"byteLength":15588,
			"byteOffset":15588,
			"target":34962
		},
		{
			"buffer":0,
			"byteLength":10392,
			"byteOffset":31176,
			"target":34962
		},
		{
			"buffer":0,
			"byteLength":8082,
			"byteOffset":41568,
			"target":34963
		}
	],
	"samplers":[
		{
			"magFilter":9729,
			"minFilter":9987
		}
	],
	"buffers":[
		{
			"byteLength":49652,
			"uri":"wheat2.bin"
		}
	]
}
